<svg width="1024" height="1024" viewBox="0 0 1024 1024" fill="none" xmlns="http://www.w3.org/2000/svg">
<g clip-path="url(#clip0_1_10)">
<path d="M0 0H1024V1024H0V0Z" fill="#0054FF"/>
<path d="M243.371 422.708L243.871 422.657C288.108 418.582 330.748 450.619 333.708 496.485C334.836 513.955 334.057 532.985 334.052 550.585L334.041 652.395L334.06 722.31C334.08 733.155 334.706 753.84 333.177 763.63C330.997 778.11 324.776 791.68 315.228 802.785C301.094 819.435 280.9 829.765 259.123 831.475C236.875 833.865 214.582 827.38 197.092 813.42C161.485 784.83 167.003 751.555 167.012 711.105L167.028 619.7L167.021 539.205C167.016 526.095 166.403 502.39 168.307 490.287C170.419 476.268 176.26 463.074 185.217 452.085C199.305 434.975 221.509 424.778 243.371 422.708Z" fill="white"/>
<path d="M766.28 422.703C766.415 422.679 766.555 422.655 766.69 422.632C805.45 419.633 844.615 443.342 853.88 482.27C857.38 496.98 857.025 509.755 856.94 524.725C856.89 533.445 856.93 542.215 856.93 550.935L856.905 649.59L856.915 722.31C856.915 733.195 857.495 754.95 855.83 764.955C853.46 778.635 847.51 791.44 838.595 802.08C824.47 819.05 804.125 829.63 782.125 831.445C759.22 833.495 737.585 827.955 719.775 813.475C703.895 800.57 691.42 779.885 690.315 759.25C689.47 743.49 689.945 726.67 689.95 710.86L689.965 618.125L689.955 537.07C689.955 525.54 689.885 514.025 690.075 502.495C690.785 458.374 722.92 426.8 766.28 422.703Z" fill="white"/>
<path d="M504.76 536.69C521.975 533.685 545.44 541.87 559.025 552.21C575.455 564.715 585.705 582.71 588.165 603.215C589.4 613.53 589.065 623.905 589.06 634.26L589.035 678.63L589.07 730.92C589.075 743.205 589.675 759.025 587.505 770.765C585.34 782.1 580.505 792.76 573.4 801.855C560.595 818.465 541.3 828.77 520.62 831.435C500.52 833.335 480.928 828.155 464.754 815.91C448.788 803.835 438.31 785.875 435.649 766.035C434.598 758 434.934 746.085 434.938 737.645L434.967 692.425L434.951 637.85C434.951 630.115 434.978 622.35 435.015 614.62C435.218 572.695 463.107 541.815 504.76 536.69Z" fill="white"/>
<path d="M768.72 191.815C819.535 189.218 862.875 228.21 865.64 279.012C868.41 329.815 829.56 373.285 778.77 376.222C727.735 379.173 684.015 340.101 681.235 289.058C678.455 238.015 717.67 194.426 768.72 191.815Z" fill="white"/>
<path d="M246.621 191.805C297.513 189.621 340.554 229.073 342.801 279.961C345.048 330.85 305.65 373.941 254.764 376.251C203.789 378.565 160.606 339.083 158.355 288.105C156.104 237.126 195.64 193.992 246.621 191.805Z" fill="white"/>
<path d="M505.17 335.162C548.145 331.376 586.045 363.164 589.8 406.142C593.55 449.12 561.73 486.995 518.75 490.714C475.817 494.428 437.994 462.654 434.246 419.723C430.497 376.792 462.243 338.943 505.17 335.162Z" fill="white"/>
</g>
<defs>
<clipPath id="clip0_1_10">
<rect width="1024" height="1024" fill="white"/>
</clipPath>
</defs>
</svg>
