<svg width="708" height="641" viewBox="0 0 708 641" fill="none" xmlns="http://www.w3.org/2000/svg">
<path d="M85.108 231.015L85.608 230.964C129.845 226.889 172.485 258.926 175.445 304.792C176.573 322.262 175.794 341.292 175.789 358.892L175.778 460.702L175.797 530.617C175.817 541.462 176.443 562.147 174.914 571.937C172.734 586.417 166.513 599.987 156.965 611.092C142.831 627.742 122.637 638.072 100.86 639.782C78.6115 642.172 56.3185 635.687 38.8285 621.727C3.22152 593.137 8.7395 559.862 8.749 519.412L8.7645 428.007L8.758 347.512C8.7525 334.402 8.13951 310.697 10.044 298.594C12.156 284.575 17.9965 271.381 26.9535 260.392C41.042 243.282 63.246 233.085 85.108 231.015Z" fill="#0054FF"/>
<path d="M608.017 231.011C608.152 230.987 608.292 230.963 608.427 230.939C647.187 227.94 686.352 251.65 695.617 290.577C699.117 305.287 698.762 318.062 698.677 333.032C698.627 341.752 698.667 350.522 698.667 359.242L698.642 457.897L698.652 530.617C698.652 541.502 699.232 563.257 697.567 573.262C695.197 586.942 689.247 599.747 680.332 610.387C666.207 627.357 645.862 637.937 623.862 639.752C600.957 641.802 579.322 636.262 561.512 621.782C545.632 608.877 533.157 588.192 532.052 567.557C531.207 551.797 531.682 534.977 531.687 519.167L531.702 426.432L531.692 345.377C531.692 333.847 531.622 322.332 531.812 310.802C532.522 266.681 564.657 235.108 608.017 231.011Z" fill="#0054FF"/>
<path d="M346.497 344.997C363.712 341.992 387.177 350.177 400.762 360.517C417.192 373.022 427.442 391.017 429.902 411.522C431.137 421.837 430.802 432.212 430.797 442.567L430.772 486.937L430.807 539.227C430.812 551.512 431.412 567.332 429.242 579.072C427.077 590.407 422.242 601.067 415.137 610.162C402.332 626.772 383.037 637.077 362.357 639.742C342.257 641.642 322.665 636.462 306.491 624.217C290.525 612.142 280.047 594.182 277.386 574.342C276.335 566.307 276.671 554.392 276.675 545.952L276.704 500.732L276.688 446.157C276.688 438.422 276.715 430.657 276.752 422.927C276.955 381.002 304.844 350.122 346.497 344.997Z" fill="#0054FF"/>
<path d="M610.457 0.122594C661.272 -2.47491 704.612 36.5171 707.377 87.3196C710.147 138.122 671.297 181.592 620.507 184.529C569.472 187.481 525.752 148.409 522.972 97.3656C520.192 46.3226 559.407 2.73309 610.457 0.122594Z" fill="#0054FF"/>
<path d="M88.358 0.112071C139.25 -2.07143 182.291 37.3801 184.538 88.2686C186.785 139.157 147.387 182.248 96.5015 184.559C45.526 186.873 2.34251 147.39 0.0915054 96.4121C-2.15899 45.4336 37.377 2.29907 88.358 0.112071Z" fill="#0054FF"/>
<path d="M346.907 143.469C389.882 139.683 427.782 171.471 431.537 214.449C435.287 257.427 403.467 295.302 360.487 299.021C317.555 302.736 279.731 270.961 275.983 228.03C272.234 185.099 303.98 147.25 346.907 143.469Z" fill="#0054FF"/>
</svg>
